inDegrees=no
num_controls=7
num_derivatives=13
num_iterations=134
num_multipliers=7
num_parameters=0
num_slacks=7
num_states=26
objective=0.496820
objective_accelerations=0.042265
objective_balance=0.003584
objective_effort=0.039826
objective_height=0.405323
objective_ligament=0.005822
solver_duration=1534.209967
status=Solve_Succeeded
success=true
DataType=double
version=3
OpenSimVersion=4.5
endheader
time	/jointset/ground_pelvis/pelvis_tilt/value	/jointset/ground_pelvis/pelvis_tx/value	/jointset/ground_pelvis/pelvis_ty/value	/jointset/hip_r/hip_flexion_r/value	/jointset/hip_r/hip_adduction_r/value	/jointset/hip_r/hip_rotation_r/value	/jointset/back/lumbar_extension/value	/jointset/patellofemoral_r/patellar_flexion_r/value	/jointset/knee_r/knee_flexion_r/value	/jointset/knee_r/knee_adduction_r/value	/jointset/knee_r/knee_rotation_r/value	/jointset/ankle_r/ankle_angle_r/value	/jointset/subtalar_r/subtalar_angle_r/value	/jointset/ground_pelvis/pelvis_tilt/speed	/jointset/ground_pelvis/pelvis_tx/speed	/jointset/ground_pelvis/pelvis_ty/speed	/jointset/hip_r/hip_flexion_r/speed	/jointset/hip_r/hip_adduction_r/speed	/jointset/hip_r/hip_rotation_r/speed	/jointset/back/lumbar_extension/speed	/jointset/patellofemoral_r/patellar_flexion_r/speed	/jointset/knee_r/knee_flexion_r/speed	/jointset/knee_r/knee_adduction_r/speed	/jointset/knee_r/knee_rotation_r/speed	/jointset/ankle_r/ankle_angle_r/speed	/jointset/subtalar_r/subtalar_angle_r/speed	/forceset/tau_hip_flexion_r	/forceset/tau_hip_adduction_r	/forceset/tau_hip_rotation_r	/forceset/tau_knee_flexion_r	/forceset/tau_ankle_angle_r	/forceset/tau_subtalar_angle_r	/forceset/tau_lumbar_extension	lambda_cid13_p0	lambda_cid14_p0	lambda_cid14_p1	lambda_cid14_p2	lambda_cid14_p3	lambda_cid14_p4	lambda_cid14_p5	/jointset/ground_pelvis/pelvis_tilt/accel	/jointset/ground_pelvis/pelvis_tx/accel	/jointset/ground_pelvis/pelvis_ty/accel	/jointset/hip_r/hip_flexion_r/accel	/jointset/hip_r/hip_adduction_r/accel	/jointset/hip_r/hip_rotation_r/accel	/jointset/back/lumbar_extension/accel	/jointset/patellofemoral_r/patellar_flexion_r/accel	/jointset/knee_r/knee_flexion_r/accel	/jointset/knee_r/knee_adduction_r/accel	/jointset/knee_r/knee_rotation_r/accel	/jointset/ankle_r/ankle_angle_r/accel	/jointset/subtalar_r/subtalar_angle_r/accel	gamma_cid13_p0	gamma_cid14_p0	gamma_cid14_p1	gamma_cid14_p2	gamma_cid14_p3	gamma_cid14_p4	gamma_cid14_p5
0	-0.006515424087870133	0.09626031665031294	0.942724067594749	0.1762555222360518	-0.2321527538732437	-0.2616406598424232	-0.038598046466844	0.07317863873451239	0.07317863873451017	0.1745328792851605	0.1745329251994329	0.03247278518263602	-0.003452044968648675	0	0	0	0	0	0	0	0	0	0	0	0	0	0.2353136939484313	-0.1752177830313393	-0.0478677804920257	-0.4306240630669788	0.4417069245462929	-0.1468487925424596	-0.1279955044028199	-39.07630388911291	92.24619730798219	-37.86916759390824	-4.645917647776772	-45.01390986282222	-677.6995008905718	62.18990987537285	-1.925706595783361	-0.8919720241122545	-0.6127768370921379	8.76732489695787	-0.01536156117156093	2.61869612314983	-4.905629442837212	9.602934589555975	9.602934589555954	-2.554418704133564	0.1781220575768372	3.532897833540502	0.773964102329006	9.070328319799314e-08	2.725875293041389e-08	-6.827424777355349e-07	2.014574439494874e-07	4.969999762160663e-08	-1.323057279611987e-08	-3.512989397966134e-07
0.01	-0.006604802008806572	0.09621586060283716	0.942694598728897	0.1766795136013547	-0.2321524155188995	-0.2615020324373044	-0.03884616428864923	0.07364508345148064	0.07364508345147726	0.1744056872482195	0.1745302415717758	0.03264448804736135	-0.003413417545652049	-0.01776904331086468	-0.008907765791626793	-0.005882002310293884	0.08444880424051186	2.292868275932877e-05	0.02757971088621588	-0.04931874092181608	0.09287660099250372	0.09287660099250598	-0.02521955236906411	-0.0005179918697348772	0.03410249957886953	0.007624430683898341	0.2276049930900868	-0.1836636665177055	-0.04564578643844333	-0.4183627285148814	0.4207065670617583	-0.1320457747159874	-0.1221468264672278	-39.09188982358435	86.02921013471696	-32.58927568419018	-5.418561055139005	-40.79565842127337	-677.9741174149333	71.77649096951049	-1.68651891227846	-0.8926523611578697	-0.5741489450982692	8.231240092210591	0.004341597022570424	2.805793467696945	-4.899272900977058	9.068153353305807	9.068153353305959	-2.472980430189162	-0.1637612013740311	3.313228010602199	0.7414406826368326	1.19956076929071e-07	2.216468613302215e-08	-9.041785794246781e-07	1.826194764911103e-07	8.067775053131819e-08	-1.833354053391867e-07	-3.983891837341359e-07
0.02	-0.00686867350555987	0.0960818321965511	0.9426066624365221	0.1779375093899885	-0.2321532035749235	-0.2610919709440586	-0.03957832481649676	0.07502792027821534	0.07502792027821613	0.1740328483022177	0.174522973461655	0.03315007630598354	-0.003301594189573117	-0.03489871516334943	-0.01791447176205637	-0.01169348530459332	0.1668008846655316	-0.0002252820735666852	0.05428681762600963	-0.09680854120856204	0.1832784219533378	0.1832784219533348	-0.04912938181398114	-0.0009160394244839695	0.0667770787794201	0.01463918661645986	0.219896292231776	-0.1921095500040703	-0.0434237923848345	-0.4061013939627674	0.3997062095772314	-0.1172427568895123	-0.116298148531615	-39.13803065692375	79.89592777353275	-27.31435727655721	-6.167988979847057	-36.77746890541609	-676.9856699143565	81.1397738965438	-1.797832304107373	-0.9117600598728108	-0.5986729738932486	8.347980133859439	-0.06958944898863363	2.444175293865345	-4.539841315823187	9.107978583222064	9.107978583220532	-2.292474119304138	0.2021109205740537	3.247313757876711	0.6520291520616369	1.492088706601488e-07	1.707061933563041e-08	-1.125614681113821e-06	1.637815090327331e-07	1.116555034410298e-07	-3.534402378822536e-07	-4.454794276716582e-07
0.03	-0.007301070175546063	0.09585742016036573	0.9424607115596801	0.1800091263669684	-0.2321578786607467	-0.2604210196138338	-0.04077575033116579	0.07730330482820909	0.07730330482820996	0.1734277452438833	0.1745140919066367	0.03397570815399285	-0.003122586684355904	-0.05147373530985645	-0.02696510300273291	-0.01750171127736253	0.2471621035023009	-0.0007423881649940355	0.07977004073805548	-0.1423669072975185	0.2714002862516204	0.2714002862516097	-0.0716776718816903	-0.0008731901599757563	0.09814342189972991	0.02108235394665988	0.2121268782983485	-0.1915031640740344	-0.04123618180867462	-0.3953050775094873	0.3826153381432507	-0.1108509856176656	-0.1103613373204027	-39.21351921760564	74.68565444119572	-25.50404622353935	-6.395659342717932	-33.30079589587979	-676.3087238450103	83.49604485199578	-1.571292653434158	-0.90126732906078	-0.5727219663434802	7.826135842615004	-0.04780281669259116	2.580439454455194	-4.517386091269112	8.604530124143247	8.604530124142983	-2.204134160347262	-0.09649451854124186	3.05044029443497	0.6283078876977242	1.697668600290055e-07	1.40055349605203e-08	-1.279392879372729e-06	1.713129665615856e-07	1.331477196503399e-07	-4.717301147146604e-07	-5.002512582798477e-07
0.04	-0.007896008203699269	0.09554259127719444	0.9422565135116355	0.1828735441491204	-0.2321687311329786	-0.2594992273255711	-0.04241946987389199	0.08044795597538615	0.0804479559753864	0.1726035337429015	0.1745052655546743	0.03510883257427071	-0.002881578032996968	-0.06740698679683556	-0.03599784115923878	-0.02334291954511092	0.3253610457002435	-0.001460759355333762	0.1044550092333404	-0.1860673468199641	0.3571317413903787	0.3571317413903655	-0.09295107034311695	-0.0009049988126850281	0.1282755932331142	0.02703941584480113	0.204357464364904	-0.1908967781439991	-0.03904857123250918	-0.3845087610562173	0.3655244667092668	-0.1044592143458203	-0.1044245261092019	-39.31674184494648	69.55141557581496	-23.69511236763064	-6.606329347749392	-30.00827716966598	-674.4892528749	85.65506400412909	-1.669478572201794	-0.9081814430386799	-0.6052694328890836	7.915524806094074	-0.1098424687711116	2.28452437051314	-4.168256002521016	8.629896751317185	8.62989675131673	-2.037495798047629	0.1871793371305844	3.00047940049162	0.5548080656498797	1.901455750811154e-07	1.098228527452939e-08	-1.431776069313487e-06	1.793881235747108e-07	1.54444357783353e-07	-5.889516419447855e-07	-5.551814721183602e-07
